<svg width="407" height="267" viewBox="0 0 407 267" fill="none" xmlns="http://www.w3.org/2000/svg">
<path d="M175.714 63.6839C166.956 64.2054 158.196 64.6159 149.434 64.9155C140.672 65.2393 131.908 65.4612 123.143 65.6635C114.378 65.833 105.612 65.9807 96.8445 66.027C88.0773 66.0979 79.3076 66.0561 70.5356 65.9016C79.2933 65.3782 88.0534 64.9669 96.8159 64.6675C105.578 64.3441 114.342 64.1222 123.106 63.922C131.872 63.7546 140.637 63.607 149.405 63.561C158.172 63.491 166.942 63.532 175.714 63.6839Z" fill="#EBC136"/>
<path d="M105.178 90.0334C96.4204 90.5548 87.6603 90.9654 78.8979 91.2652C70.136 91.5889 61.3719 91.8108 52.6074 92.0129C43.8422 92.1825 35.0766 92.3303 26.3089 92.3765C17.5416 92.4476 8.772 92.4058 0 92.2512C8.75768 91.7276 17.5178 91.3162 26.2802 91.0169C35.0422 90.6935 43.8062 90.4716 52.5708 90.2717C61.336 90.1042 70.1016 89.9564 78.8694 89.9106C87.6366 89.8404 96.4062 89.8814 105.178 90.0334Z" fill="#EBC136"/>
<path d="M135.326 119.522C126.568 120.043 117.808 120.454 109.045 120.754C100.283 121.078 91.5193 121.299 82.7549 121.502C73.9898 121.671 65.2241 121.819 56.4563 121.865C47.6891 121.936 38.9195 121.894 30.1475 121.74C38.9052 121.216 47.6653 120.805 56.4277 120.505C65.1896 120.182 73.9537 119.96 82.7182 119.76C91.4834 119.593 100.249 119.445 109.017 119.399C117.784 119.329 126.554 119.37 135.326 119.522Z" fill="#EBC136"/>
<path d="M307.727 113.168C316.136 113.168 316.15 100.098 307.727 100.098C299.317 100.098 299.304 113.168 307.727 113.168Z" fill="#6F56A5"/>
<path d="M236.436 3.47709C239.081 3.05124 241.788 3.2601 244.337 4.08646C245.531 4.49862 249.9 6.00589 252.058 10.1121C252.878 11.6716 253.076 13.5543 253.473 17.3197C253.721 19.6717 254.642 21.3499 254.665 24.2208C254.638 26.5473 254.276 28.8578 253.591 31.0813C252.565 34.5609 253.261 36.5269 252.74 37.1801C250.641 39.8129 244.184 37.8164 244.116 41.2291C244.074 43.3363 247.707 52.4007 247.656 54.8693C247.536 60.6219 237.881 54.6852 232.063 46.1557C231.799 45.7686 227.852 43.5028 228.231 39.7733C228.433 37.7809 230.044 28.4265 229.871 27.2228C229.247 22.8722 227.048 22.3597 225.273 17.1094C224.792 15.7915 224.658 14.3722 224.883 12.9876C225.108 11.603 225.685 10.2994 226.559 9.20185C229.078 6.19427 232.574 4.16794 236.436 3.47709V3.47709Z" fill="#D19E8A"/>
<path d="M252.607 22.1205C253.096 22.1163 253.487 21.6205 253.482 21.0132C253.477 20.4058 253.077 19.9167 252.588 19.9209C252.1 19.9251 251.708 20.4209 251.713 21.0283C251.719 21.6357 252.119 22.1247 252.607 22.1205Z" fill="#0A0709"/>
<path d="M244.635 22.1895C245.123 22.1853 245.515 21.6895 245.51 21.0821C245.505 20.4747 245.105 19.9857 244.616 19.9899C244.128 19.9941 243.736 20.4898 243.741 21.0972C243.747 21.7046 244.147 22.1937 244.635 22.1895Z" fill="#0A0709"/>
<path d="M248.377 19.0887C248.484 19.0877 248.59 19.0554 248.679 18.9957C249.458 18.4476 250.385 18.1479 251.338 18.136C252.29 18.124 253.224 18.4004 254.017 18.9288C254.136 19.0162 254.285 19.0529 254.431 19.0307C254.577 19.0086 254.708 18.9295 254.796 18.8107C254.884 18.6919 254.921 18.5431 254.899 18.397C254.878 18.2509 254.799 18.1193 254.681 18.0311C253.699 17.3776 252.546 17.0317 251.367 17.0377C250.188 17.0436 249.038 17.4012 248.063 18.0646C247.963 18.1311 247.886 18.2283 247.846 18.3417C247.805 18.4551 247.802 18.5786 247.837 18.6938C247.873 18.809 247.944 18.9097 248.042 18.9809C248.139 19.052 248.256 19.0899 248.377 19.0887V19.0887Z" fill="#494752"/>
<path d="M240.113 19.1594C240.22 19.1584 240.325 19.1261 240.415 19.0663C241.197 18.5241 242.122 18.2278 243.073 18.2156C244.025 18.2034 244.958 18.4757 245.753 18.9977C245.812 19.0413 245.879 19.0729 245.95 19.0907C246.021 19.1085 246.094 19.1122 246.167 19.1014C246.239 19.0907 246.309 19.0658 246.372 19.0281C246.435 18.9905 246.489 18.9408 246.533 18.882C246.577 18.8231 246.608 18.7563 246.626 18.6852C246.644 18.6142 246.648 18.5403 246.637 18.4679C246.626 18.3954 246.601 18.3258 246.563 18.263C246.526 18.2002 246.476 18.1454 246.417 18.1017C245.436 17.4483 244.282 17.1024 243.103 17.1084C241.924 17.1143 240.774 17.4718 239.799 18.1352C239.698 18.2017 239.622 18.299 239.582 18.4124C239.541 18.5258 239.538 18.6493 239.573 18.7645C239.609 18.8796 239.68 18.9803 239.777 19.0515C239.875 19.1227 239.992 19.1605 240.113 19.1594V19.1594Z" fill="#494752"/>
<path d="M247.618 19.3222C247.329 20.2516 247.373 21.2531 247.744 22.1531C248.066 23.0581 248.53 23.9063 249.117 24.6663L249.583 25.188C249.64 25.2395 249.686 25.3019 249.718 25.3715C249.751 25.441 249.769 25.5164 249.772 25.5931C249.738 25.9696 249.556 26.3174 249.267 26.561C248.556 27.095 247.67 27.3425 246.785 27.2544C247.245 27.4382 247.742 27.5095 248.235 27.4624C248.728 27.4152 249.203 27.251 249.619 26.9833C249.849 26.8258 250.042 26.6198 250.183 26.3799C250.325 26.14 250.412 25.8719 250.439 25.5946C250.442 25.2797 250.324 24.9757 250.11 24.7445L249.66 24.2176C249.109 23.5059 248.635 22.7385 248.244 21.9279C247.817 21.1266 247.602 20.2298 247.618 19.3222Z" fill="#B5806D"/>
<path d="M237.897 28.4632C237.897 28.4632 236.378 22.151 236.631 20.338C236.983 17.8116 237.159 16.5485 236.848 15.5242C236.351 13.8848 237.15 13.664 238.165 11.8888C239.117 10.2228 242.124 11.5392 242.869 11.2565C244.96 10.463 244.875 9.58023 246.292 9.47992C247.746 9.37704 248.81 8.98361 249.758 9.91416C250.724 10.864 252.505 13.3955 252.934 12.95C253.838 11.7246 254.387 10.2739 254.521 8.757C254.519 7.26303 254.153 5.79208 253.454 4.47156C253.103 3.70823 251.797 0.867601 249.121 0.129108C247.58 -0.296308 247.291 0.446807 243.967 0.672084C240.519 0.905849 240.405 0.135309 238.603 0.664279C236.608 1.24992 236.692 2.20966 233.29 4.10592C232.162 4.71461 231.002 5.26157 229.815 5.74439C225.54 7.59809 224.976 7.31235 223.998 8.27442C221.888 10.3486 222.266 13.8807 222.357 14.7338C222.614 17.1367 223.559 17.8513 225.634 21.6863C228.919 27.7594 228.292 30.3284 229.484 31.1737C230.069 31.5884 233.118 29.3816 233.094 28.3073C233.064 26.8989 232.045 26.4631 230.833 24.4375C229.986 23.0218 228.77 20.9893 229.444 19.1317C229.852 18.0088 230.321 18.311 231.481 18.4086C233.056 18.5411 233.849 20.7272 234.494 22.331C234.959 23.4917 235.166 24.7398 235.101 25.9886C234.958 28.7747 238.449 29.5672 237.897 28.4632Z" fill="#2E2C33"/>
<path d="M244.983 31.1568C244.983 31.1568 248.493 34.3758 251.58 31.1005Z" fill="#9D6D5C"/>
<path d="M245.766 47.5231C245.766 47.5231 251.935 65.3632 228.346 38.8619L218.097 47.3736C215.973 49.1679 214.508 51.6193 213.933 54.3399C213.431 58.1994 212.929 62.059 212.427 65.9186C210.518 80.5921 210.505 95.4502 212.387 110.127C212.895 114.085 213.403 118.044 213.911 122.002L257.982 128.054C255.503 119.565 254.039 110.813 253.621 101.98C253.125 91.4069 254.434 86.9084 253.934 78.1388C253.246 67.4965 250.47 57.0936 245.766 47.5231V47.5231Z" fill="#FFBA55"/>
<path d="M252.194 118.715C251.395 118.257 250.582 117.842 249.781 117.407L247.428 116.022C245.895 115.058 244.431 113.989 243.045 112.824C241.657 111.671 240.401 110.367 239.301 108.937C238.758 108.216 238.275 107.452 237.856 106.653C237.409 105.86 237.07 105.011 236.846 104.128C237.099 105.971 237.789 107.727 238.858 109.249C239.901 110.789 241.157 112.173 242.588 113.36C244.003 114.551 245.533 115.599 247.155 116.487L249.628 117.714C250.486 118.048 251.332 118.403 252.194 118.715Z" fill="#E6952A"/>
<path d="M239.875 36.8209C242.78 38.826 248.346 38.691 248.346 38.691L248.364 38.8206C246.202 39.1024 244.154 39.315 244.116 41.2289C244.218 42.2997 244.445 43.3548 244.794 44.3725C240.993 42.2309 239.875 36.8209 239.875 36.8209Z" fill="#B5806D"/>
<path d="M297.481 191.415L299.841 203.366L322.967 207.091L292.043 216.482L285.534 195.044L297.481 191.415Z" fill="#D19E8A"/>
<path d="M326.391 207.202L326.37 207.132C326.205 206.589 325.893 206.103 325.469 205.728C325.044 205.352 324.524 205.102 323.965 205.005L299.864 200.818C299.628 200.777 299.385 200.82 299.178 200.94C298.971 201.06 298.813 201.248 298.731 201.473L296.296 208.153C296.21 208.39 296.039 208.586 295.816 208.704C295.593 208.823 295.334 208.854 295.09 208.793L289.42 207.372C289.245 207.328 289.062 207.331 288.888 207.381C288.715 207.432 288.558 207.527 288.434 207.658C288.309 207.789 288.222 207.95 288.18 208.126C288.138 208.301 288.144 208.485 288.196 208.658L291.016 217.946C291.095 218.204 291.273 218.421 291.512 218.549C291.75 218.676 292.03 218.704 292.289 218.625L325.712 208.475C325.971 208.396 326.188 208.218 326.315 207.979C326.443 207.741 326.47 207.461 326.391 207.202V207.202Z" fill="#251D1B"/>
<path d="M213.069 113.308C213.069 113.308 206.026 144.526 219.485 143.966H270.649L284.433 199.603C284.433 199.603 289.733 201.766 294.333 200.802C297.494 200.141 300.217 197.126 302.11 195.584C302.11 195.584 292.04 115.82 272.991 113.398C249.229 110.376 213.069 113.308 213.069 113.308Z" fill="#808B49"/>
<path d="M270.65 143.966C271.829 142.486 272.883 140.909 273.8 139.253C274.229 138.435 274.668 137.618 275.051 136.756C275.457 135.901 275.805 135.014 276.272 134.105C276.402 135.108 276.353 136.126 276.128 137.112C275.92 138.107 275.564 139.065 275.072 139.955C274.581 140.849 273.954 141.662 273.214 142.364C272.493 143.087 271.616 143.636 270.65 143.966Z" fill="#5E7C24"/>
<path d="M229.72 58.7476C229.72 58.7476 231.717 53.9899 257.839 91.5129L247.914 104.396C247.914 104.396 233.502 92.5359 226.975 82.297" fill="#FFBA55"/>
<path d="M312.905 96.1764L335.945 85.1857L337.126 110.369L314.972 103.199L312.905 96.1764Z" fill="#8E6CD8"/>
<path d="M178.501 266.376C197.309 266.376 212.556 251.086 212.556 232.225C212.556 213.364 197.309 198.074 178.501 198.074C159.692 198.074 144.445 213.364 144.445 232.225C144.445 251.086 159.692 266.376 178.501 266.376Z" fill="#1E1D22"/>
<path d="M178.5 249.949C188.262 249.949 196.175 242.014 196.175 232.225C196.175 222.436 188.262 214.501 178.5 214.501C168.739 214.501 160.826 222.436 160.826 232.225C160.826 242.014 168.739 249.949 178.5 249.949Z" fill="#848384"/>
<path d="M363.276 266.376C382.085 266.376 397.332 251.086 397.332 232.225C397.332 213.364 382.085 198.074 363.276 198.074C344.468 198.074 329.221 213.364 329.221 232.225C329.221 251.086 344.468 266.376 363.276 266.376Z" fill="#1E1D22"/>
<path d="M363.276 249.949C373.038 249.949 380.951 242.014 380.951 232.225C380.951 222.436 373.038 214.501 363.276 214.501C353.515 214.501 345.602 222.436 345.602 232.225C345.602 242.014 353.515 249.949 363.276 249.949Z" fill="#848384"/>
<path d="M362.604 239.304C369.331 239.304 369.343 228.847 362.604 228.847C355.877 228.847 355.865 239.304 362.604 239.304Z" fill="#1E1D22"/>
<path d="M406.816 228.335C406.816 228.335 375.778 212.772 320.6 233.522H222.04C222.04 233.522 189.278 254.272 134.1 238.71C134.1 238.71 127.202 226.605 144.446 200.668C144.446 200.668 154.792 171.272 161.689 166.084L256.768 166.134C256.768 166.134 254.549 214.14 289.036 217.598C323.522 221.057 320.073 188.202 320.073 188.202L315.508 115.491C315.43 110.88 315.115 106.276 314.567 101.696C313.939 96.3569 312.128 97.0993 314.283 98.1801C317.732 99.9092 351.637 136.688 358.535 188.563C358.535 188.563 398.194 183.376 406.816 228.335Z" fill="#8E6CD8"/>
<path d="M358.534 188.564C353.446 189.885 348.589 191.978 344.134 194.769C341.947 196.141 339.876 197.689 337.942 199.398C335.999 201.081 334.22 202.944 332.63 204.964C331.001 206.956 329.55 209.089 328.296 211.336C327.949 211.881 327.666 212.462 327.365 213.034C327.077 213.611 326.746 214.17 326.49 214.765C325.974 215.952 325.396 217.117 324.941 218.337C323.051 223.262 321.598 228.343 320.599 233.522C320.47 228.125 321.214 222.743 322.803 217.583C324.381 212.33 326.949 207.428 330.37 203.14C335.569 196.718 342.626 192.059 350.574 189.803C353.163 189.05 355.839 188.634 358.534 188.564V188.564Z" fill="#6F56A5"/>
<path d="M222.04 233.522C225.1 228.84 227.491 223.754 229.143 218.41C230.753 213.141 231.44 207.516 230.187 202.304C228.864 197.095 225.673 192.555 221.22 189.548C220.947 189.353 220.692 189.136 220.405 188.959L219.543 188.428C218.965 188.081 218.412 187.695 217.814 187.377C216.592 186.779 215.437 186.084 214.142 185.593L212.243 184.793C211.63 184.539 211.005 184.316 210.369 184.125C209.083 183.724 207.759 183.394 206.425 183.113C201.05 181.988 195.544 181.615 190.066 182.006C187.318 182.187 184.583 182.532 181.877 183.04C179.167 183.551 176.495 184.255 173.839 185.029C163.214 188.51 153.27 193.801 144.445 200.668L147.589 197.848L150.88 195.192L154.287 192.673C155.462 191.889 156.625 191.079 157.817 190.314C162.637 187.289 167.771 184.796 173.129 182.876C178.534 180.978 184.156 179.764 189.864 179.262C195.605 178.783 201.386 179.123 207.032 180.273C208.443 180.583 209.845 180.944 211.237 181.389C211.923 181.61 212.649 181.858 213.324 182.153L215.301 183.005C216.633 183.524 217.895 184.284 219.188 184.934C219.826 185.281 220.428 185.703 221.049 186.085C221.677 186.46 222.278 186.879 222.848 187.34C227.733 190.797 231.14 195.965 232.392 201.818C232.95 204.692 233.027 207.639 232.621 210.539C232.221 213.385 231.504 216.178 230.484 218.865C229.46 221.515 228.232 224.082 226.812 226.542C225.419 228.999 223.823 231.333 222.04 233.522V233.522Z" fill="#6F56A5"/>
<path d="M157.913 167.453H252.006C257.719 167.453 262.352 162.195 262.352 155.71C262.352 149.225 257.719 143.967 252.006 143.967H157.913C152.2 143.967 147.567 149.225 147.567 155.71C147.567 162.195 152.2 167.453 157.913 167.453Z" fill="#6F56A5"/>
<path d="M210.66 195.584C209.093 197.429 207.33 199.097 205.403 200.56C203.487 202.047 201.472 203.401 199.372 204.612C198.344 205.263 197.254 205.791 196.178 206.352C195.109 206.93 193.996 207.409 192.894 207.915C192.343 208.171 191.785 208.409 191.229 208.65L189.53 209.295C188.391 209.708 187.27 210.178 186.115 210.544C181.512 212.039 176.787 213.13 171.994 213.804C169.614 214.197 167.193 214.295 164.801 214.509C162.392 214.584 159.983 214.587 157.585 214.501C159.938 213.943 162.29 213.562 164.624 213.094L168.11 212.339C169.269 212.088 170.436 211.893 171.579 211.575C172.727 211.282 173.874 210.999 175.026 210.742C176.183 210.506 177.302 210.12 178.44 209.815C179.569 209.476 180.728 209.246 181.842 208.862L185.204 207.787C186.332 207.453 187.425 207.018 188.538 206.638L190.198 206.044C190.741 205.821 191.283 205.594 191.833 205.386C194.041 204.572 196.172 203.579 198.32 202.613C199.38 202.103 200.453 201.609 201.492 201.054L203.07 200.248L204.614 199.38C206.702 198.234 208.72 196.966 210.66 195.584V195.584Z" fill="#6F56A5"/>
<path d="M214.693 206.99C213.126 208.835 211.364 210.503 209.436 211.966C207.521 213.453 205.506 214.807 203.405 216.018C202.377 216.669 201.287 217.197 200.211 217.758C199.142 218.336 198.029 218.815 196.927 219.321C196.377 219.577 195.819 219.815 195.262 220.056L193.563 220.701C192.424 221.114 191.303 221.584 190.149 221.95C185.545 223.445 180.82 224.536 176.028 225.21C173.648 225.603 171.226 225.701 168.834 225.915C166.426 225.99 164.017 225.993 161.618 225.907C163.971 225.349 166.323 224.968 168.657 224.5L172.143 223.745C173.302 223.494 174.469 223.299 175.612 222.981C176.76 222.688 177.907 222.405 179.059 222.148C180.216 221.912 181.335 221.526 182.473 221.221C183.602 220.882 184.762 220.652 185.875 220.268L189.237 219.193C190.366 218.859 191.458 218.424 192.571 218.044L194.231 217.45C194.775 217.227 195.316 217 195.866 216.792C198.074 215.978 200.206 214.985 202.353 214.019C203.413 213.509 204.486 213.015 205.525 212.46L207.103 211.654L208.648 210.786C210.735 209.64 212.753 208.372 214.693 206.99V206.99Z" fill="#6F56A5"/>
<path d="M337.006 110.375C339.165 110.273 340.651 104.554 340.325 97.5992C339.998 90.6449 337.983 85.0895 335.824 85.1909C333.665 85.2923 332.179 91.012 332.505 97.9663C332.831 104.921 334.847 110.476 337.006 110.375Z" fill="#FFBA55"/>
<path d="M335.824 85.191C335.555 85.2677 335.305 85.4026 335.094 85.5862C334.882 85.7698 334.714 85.9977 334.6 86.2537C334.333 86.7434 334.127 87.264 333.986 87.8039C333.693 88.8936 333.49 90.0057 333.38 91.1288C332.967 95.6575 333.182 100.222 334.018 104.692C334.233 105.799 334.539 106.887 334.933 107.945C335.123 108.469 335.377 108.968 335.689 109.43C335.826 109.675 336.015 109.886 336.242 110.049C336.47 110.212 336.731 110.323 337.006 110.375C336.702 110.395 336.397 110.344 336.116 110.226C335.835 110.108 335.585 109.927 335.386 109.696C334.958 109.269 334.59 108.785 334.293 108.258C333.713 107.217 333.252 106.114 332.92 104.97C331.622 100.412 331.397 95.6147 332.264 90.9552C332.488 89.7848 332.843 88.6435 333.323 87.5528C333.569 87.0006 333.89 86.4846 334.275 86.019C334.452 85.7705 334.684 85.5663 334.952 85.4226C335.221 85.279 335.52 85.1997 335.824 85.191V85.191Z" fill="#E6952A"/>
<path d="M326.497 111.839C325.422 110.895 324.433 109.903 323.462 108.902L320.582 105.9C319.637 104.896 318.673 103.916 317.68 102.986C317.188 102.522 316.667 102.088 316.122 101.688C315.588 101.262 314.956 100.977 314.283 100.859C315.009 100.682 315.772 100.752 316.454 101.057C317.133 101.33 317.779 101.678 318.381 102.095C319.559 102.912 320.649 103.851 321.631 104.897C322.606 105.926 323.508 107.023 324.329 108.179C325.167 109.327 325.893 110.553 326.497 111.839Z" fill="#6F56A5"/>
<path d="M194.051 141.137H142.276C141.529 141.137 140.812 140.84 140.284 140.312C139.756 139.784 139.459 139.067 139.459 138.32V100.395H196.868V138.32C196.868 139.067 196.571 139.784 196.043 140.312C195.515 140.84 194.798 141.137 194.051 141.137Z" fill="#584432"/>
<path d="M174.747 112.129C174.561 111.846 174.29 111.837 173.982 111.828C173.947 111.827 173.911 111.826 173.876 111.825C173.848 111.823 173.818 111.824 173.787 111.824C173.661 111.826 173.515 111.829 173.441 111.724C173.356 111.602 173.364 111.367 173.371 111.172C173.373 111.111 173.375 111.054 173.374 111.005C173.362 110.554 173.336 110.074 173.162 109.914C173.031 109.794 172.637 109.811 172.274 109.826C172.157 109.831 172.042 109.836 171.941 109.836H164.218C164.062 109.836 163.899 109.823 163.739 109.811C163.427 109.787 163.125 109.763 162.912 109.836C162.601 109.942 162.58 110.499 162.56 111.023L162.559 111.051C162.543 111.484 162.435 111.818 162.079 111.785C161.665 111.746 161.253 111.734 161.066 112.108C160.845 112.551 160.89 113.015 160.972 113.845C160.984 113.964 160.996 114.09 161.009 114.224H174.866C174.874 114.126 174.882 114.029 174.891 113.933C174.956 113.186 175.012 112.535 174.747 112.129Z" fill="#785A3F"/>
<path fill-rule="evenodd" clip-rule="evenodd" d="M162.088 115.048C162.304 117.974 162.518 120.903 162.732 123.833L162.733 123.834C162.849 125.425 162.965 127.015 163.082 128.605H163.524C163.554 128.854 163.588 129.162 163.625 129.486C163.698 130.143 163.78 130.87 163.849 131.316H163.897C164.348 131.151 167.461 129.822 167.463 124.53C167.462 124.515 167.463 124.499 167.464 124.484H166.695C166.658 124.484 166.622 124.472 166.592 124.449C166.563 124.427 166.542 124.395 166.532 124.36C166.457 124.175 166.397 123.984 166.351 123.79C165.899 124.045 165.54 124.435 165.325 124.904C165.121 124.424 165.094 123.888 165.249 123.391C165.404 122.893 165.732 122.465 166.174 122.182C166.18 120.637 166.759 119.149 167.801 117.997L167.818 117.983C167.848 117.957 167.887 117.942 167.927 117.942C167.95 117.942 167.973 117.947 167.994 117.956C168.016 117.966 168.035 117.98 168.051 117.997C169.105 119.15 169.681 120.653 169.663 122.207C170.114 122.482 170.448 122.91 170.604 123.41C170.759 123.91 170.726 124.449 170.509 124.927C170.296 124.458 169.936 124.067 169.483 123.813C169.455 124.001 169.404 124.185 169.331 124.361C169.305 124.436 169.255 124.484 169.204 124.484H168.384C168.385 124.493 168.386 124.502 168.387 124.512L168.387 124.514L168.387 124.518C168.387 124.526 168.387 124.534 168.387 124.541C168.398 129.986 171.708 131.222 171.987 131.316H172.083C172.107 130.887 172.187 130.296 172.264 129.719C172.317 129.321 172.37 128.931 172.402 128.605H172.85C172.993 126.603 173.14 124.605 173.287 122.608L173.287 122.607L173.287 122.607C173.476 120.052 173.664 117.497 173.844 114.93H162.116C162.083 114.937 162.085 114.992 162.088 115.048ZM167.927 117.942L167.926 117.942H167.928L167.927 117.942Z" fill="#785A3F"/>
<path d="M203.819 91.2509V96.4073C203.867 97.4128 203.516 98.3968 202.842 99.1441C202.167 99.8915 201.224 100.342 200.219 100.396H136.105C135.1 100.341 134.158 99.8909 133.485 99.1434C132.812 98.3959 132.462 97.4121 132.512 96.4073V91.2509C132.463 90.247 132.814 89.2648 133.487 88.5187C134.16 87.7726 135.101 87.3234 136.105 87.2691H200.219C201.223 87.3231 202.165 87.772 202.84 88.518C203.514 89.2639 203.866 90.2464 203.819 91.2509V91.2509Z" fill="#785A3F"/>
<path d="M196.233 141.162H162.085L154.384 133.063C154.269 132.938 154.129 132.838 153.972 132.771C153.815 132.705 153.645 132.673 153.475 132.678C153.304 132.683 153.137 132.724 152.984 132.8C152.831 132.876 152.697 132.983 152.589 133.116C152.356 133.397 152.232 133.754 152.241 134.119C152.25 134.485 152.39 134.835 152.636 135.105L158.396 141.162H149.208V134.771C149.227 134.593 149.207 134.413 149.152 134.244C149.096 134.074 149.006 133.917 148.886 133.785C148.766 133.652 148.62 133.546 148.457 133.474C148.294 133.401 148.117 133.363 147.939 133.363C147.76 133.363 147.583 133.401 147.42 133.474C147.257 133.546 147.111 133.652 146.991 133.785C146.871 133.917 146.781 134.074 146.725 134.244C146.67 134.413 146.651 134.593 146.669 134.771V141.162H140.396C140.048 141.198 139.725 141.362 139.491 141.622C139.256 141.882 139.126 142.219 139.126 142.569C139.126 142.92 139.256 143.257 139.491 143.517C139.725 143.777 140.048 143.941 140.396 143.976H146.669V150.368C146.651 150.546 146.67 150.725 146.725 150.895C146.781 151.065 146.871 151.221 146.991 151.354C147.111 151.487 147.257 151.593 147.42 151.665C147.583 151.738 147.76 151.775 147.939 151.775C148.117 151.775 148.294 151.738 148.457 151.665C148.62 151.593 148.766 151.487 148.886 151.354C149.006 151.221 149.096 151.065 149.152 150.895C149.207 150.725 149.227 150.546 149.208 150.368V143.976H161.072L167.469 150.703C167.584 150.829 167.724 150.929 167.881 150.995C168.038 151.062 168.208 151.094 168.378 151.089C168.548 151.084 168.716 151.042 168.869 150.967C169.021 150.891 169.156 150.784 169.264 150.651C169.497 150.37 169.621 150.013 169.612 149.648C169.603 149.282 169.463 148.932 169.216 148.662L164.761 143.976H196.233C196.582 143.941 196.904 143.777 197.139 143.517C197.373 143.257 197.503 142.919 197.503 142.569C197.503 142.219 197.373 141.882 197.139 141.622C196.904 141.362 196.582 141.198 196.233 141.162V141.162Z" fill="#464646"/>
<path d="M257.545 92.2422L296.853 97.4833C296.853 97.4833 312.907 91.5253 316.177 99.9749C316.609 101.142 316.621 102.423 316.212 103.598C315.232 106.537 312.914 112.341 311.216 107.499L309.47 102.52C309.47 102.52 303.445 106.693 297.623 104.623C295.52 103.876 267.369 109.359 252.194 105.657L247.914 104.396L257.545 92.2422Z" fill="#D19E8A"/>
<path d="M229.72 58.7475C229.845 58.533 230.126 58.5328 230.346 58.5549C230.573 58.5978 230.797 58.6621 231.013 58.7468C231.429 58.9461 231.828 59.179 232.207 59.4431C232.593 59.6946 232.961 59.9723 233.309 60.2743C233.657 60.5728 234.033 60.8461 234.36 61.1676C235.722 62.401 237.01 63.7115 238.261 65.0531C240.759 67.7442 243.059 70.5983 245.366 73.4448C247.656 76.3046 249.867 79.2251 252.032 82.1769C254.233 85.1044 256.297 88.1269 258.432 91.1004L258.739 91.5288L258.411 91.9533L253.436 98.3859L248.434 104.797L248.01 105.34L247.497 104.903C245.539 103.239 243.649 101.532 241.807 99.759C239.965 97.9899 238.154 96.1882 236.402 94.3302C234.649 92.4732 232.951 90.563 231.365 88.5594C229.762 86.5738 228.295 84.4814 226.975 82.2968C228.457 84.3612 230.05 86.3444 231.746 88.2375C233.446 90.1233 235.224 91.9354 237.014 93.7311C238.819 95.5147 240.68 97.2407 242.571 98.9321C244.47 100.611 246.38 102.291 248.331 103.889L247.394 103.995L252.317 97.5232L257.268 91.0725L257.247 91.9249C255.145 88.9398 253.073 85.931 250.938 82.9703C248.834 79.9862 246.664 77.0517 244.506 74.1089C242.316 71.1925 240.107 68.2835 237.746 65.5079C236.582 64.1061 235.381 62.7352 234.104 61.4384C233.797 61.0995 233.446 60.8131 233.118 60.4976C232.792 60.1821 232.446 59.8871 232.083 59.6144C231.733 59.327 231.36 59.0687 230.967 58.8421C230.765 58.7447 230.554 58.666 230.338 58.607C230.129 58.5707 229.861 58.5458 229.72 58.7475Z" fill="#E6952A"/>
<path d="M147.989 143.495C148.249 143.486 148.495 143.376 148.676 143.189C148.857 143.002 148.958 142.752 148.958 142.492C148.958 142.232 148.857 141.982 148.676 141.795C148.495 141.608 148.249 141.499 147.989 141.49C147.73 141.499 147.483 141.608 147.303 141.795C147.122 141.982 147.021 142.232 147.021 142.492C147.021 142.752 147.122 143.002 147.303 143.189C147.483 143.376 147.73 143.486 147.989 143.495Z" fill="#616161"/>
<path d="M147.989 151.029C148.249 151.02 148.495 150.91 148.676 150.723C148.857 150.536 148.958 150.286 148.958 150.026C148.958 149.766 148.857 149.516 148.676 149.329C148.495 149.142 148.249 149.033 147.989 149.024C147.73 149.033 147.483 149.142 147.303 149.329C147.122 149.516 147.021 149.766 147.021 150.026C147.021 150.286 147.122 150.536 147.303 150.723C147.483 150.91 147.73 151.02 147.989 151.029V151.029Z" fill="#616161"/>
<path d="M153.703 135.296C153.963 135.287 154.209 135.177 154.389 134.99C154.57 134.803 154.671 134.553 154.671 134.293C154.671 134.033 154.57 133.783 154.389 133.596C154.209 133.409 153.963 133.299 153.703 133.291C153.443 133.299 153.197 133.409 153.016 133.596C152.835 133.783 152.734 134.033 152.734 134.293C152.734 134.553 152.835 134.803 153.016 134.99C153.197 135.177 153.443 135.287 153.703 135.296V135.296Z" fill="#616161"/>
<path d="M147.989 135.981C148.249 135.972 148.495 135.863 148.676 135.676C148.857 135.489 148.957 135.239 148.957 134.979C148.957 134.719 148.857 134.469 148.676 134.282C148.495 134.095 148.249 133.985 147.989 133.976C147.729 133.985 147.483 134.095 147.303 134.282C147.122 134.469 147.021 134.719 147.021 134.979C147.021 135.239 147.122 135.489 147.303 135.676C147.483 135.863 147.729 135.972 147.989 135.981V135.981Z" fill="#616161"/>
<path d="M161.017 143.495C161.277 143.486 161.523 143.376 161.703 143.189C161.884 143.002 161.985 142.752 161.985 142.492C161.985 142.232 161.884 141.982 161.703 141.795C161.523 141.608 161.277 141.499 161.017 141.49C160.757 141.499 160.511 141.608 160.33 141.795C160.149 141.982 160.048 142.232 160.048 142.492C160.048 142.752 160.149 143.002 160.33 143.189C160.511 143.376 160.757 143.486 161.017 143.495Z" fill="#616161"/>
<path d="M168.164 143.228C168.424 143.22 168.67 143.11 168.85 142.923C169.031 142.736 169.132 142.486 169.132 142.226C169.132 141.966 169.031 141.716 168.85 141.529C168.67 141.342 168.424 141.232 168.164 141.224C167.904 141.232 167.658 141.342 167.477 141.529C167.296 141.716 167.195 141.966 167.195 142.226C167.195 142.486 167.296 142.736 167.477 142.923C167.658 143.11 167.904 143.22 168.164 143.228Z" fill="#616161"/>
<path d="M168.164 150.564C168.424 150.556 168.67 150.446 168.85 150.259C169.031 150.072 169.132 149.822 169.132 149.562C169.132 149.302 169.031 149.052 168.85 148.865C168.67 148.678 168.424 148.568 168.164 148.56C167.904 148.568 167.658 148.678 167.477 148.865C167.296 149.052 167.195 149.302 167.195 149.562C167.195 149.822 167.296 150.072 167.477 150.259C167.658 150.446 167.904 150.556 168.164 150.564V150.564Z" fill="#616161"/>
<path d="M141.057 143.495C141.317 143.486 141.563 143.376 141.743 143.189C141.924 143.002 142.025 142.752 142.025 142.492C142.025 142.232 141.924 141.982 141.743 141.795C141.563 141.608 141.317 141.499 141.057 141.49C140.797 141.499 140.551 141.608 140.37 141.795C140.189 141.982 140.088 142.232 140.088 142.492C140.088 142.752 140.189 143.002 140.37 143.189C140.551 143.376 140.797 143.486 141.057 143.495Z" fill="#616161"/>
<path d="M195.147 143.495C195.406 143.486 195.653 143.376 195.833 143.189C196.014 143.002 196.115 142.752 196.115 142.492C196.115 142.232 196.014 141.982 195.833 141.795C195.653 141.608 195.406 141.499 195.147 141.49C194.887 141.499 194.641 141.608 194.46 141.795C194.279 141.982 194.178 142.232 194.178 142.492C194.178 142.752 194.279 143.002 194.46 143.189C194.641 143.376 194.887 143.486 195.147 143.495Z" fill="#616161"/>
</svg>
