<svg width="492" height="279" viewBox="0 0 492 279" fill="none" xmlns="http://www.w3.org/2000/svg">
<path d="M81.7398 264.379L81.0063 263.959C81.2123 263.633 101.663 231.178 104.846 223.091L105.648 223.378C102.436 231.534 82.583 263.042 81.7398 264.379Z" fill="#8B9D36"/>
<path d="M98.3159 206.073C99.1815 208.112 99.8433 210.225 100.293 212.383C100.752 214.496 101.089 216.631 101.303 218.78C101.522 220.928 101.615 223.085 101.581 225.243C101.568 227.443 101.335 229.637 100.883 231.795C100.014 229.757 99.3502 227.644 98.9021 225.486C98.442 223.373 98.1062 221.237 97.8964 219.088C97.6811 216.94 97.5898 214.782 97.6228 212.624C97.637 210.425 97.8691 208.231 98.3159 206.073V206.073Z" fill="#8B9D36"/>
<path d="M90.7689 215.901C91.8229 217.8 92.6818 219.793 93.3339 221.85C93.9913 223.86 94.5294 225.905 94.9454 227.973C95.3669 230.04 95.6639 232.129 95.8349 234.228C96.0302 236.369 96.0056 238.523 95.7614 240.66C94.7035 238.762 93.8429 236.769 93.1918 234.712C92.534 232.701 91.9975 230.656 91.5849 228.587C91.167 226.519 90.8716 224.431 90.7 222.331C90.5059 220.19 90.5289 218.037 90.7689 215.901V215.901Z" fill="#8B9D36"/>
<path d="M86.6102 227.342C87.5383 229.107 88.2701 230.961 88.7937 232.871C89.3222 234.732 89.7302 236.623 90.0154 238.532C90.3059 240.44 90.471 242.363 90.5096 244.291C90.5697 246.265 90.41 248.24 90.0333 250.182C89.1011 248.418 88.3676 246.564 87.8452 244.653C87.3159 242.792 86.9094 240.901 86.6281 238.992C86.3412 237.083 86.1777 235.16 86.1385 233.232C86.0795 231.258 86.2376 229.284 86.6102 227.342V227.342Z" fill="#8B9D36"/>
<path d="M81.3734 238.762C82.3053 240.241 83.0485 241.821 83.5874 243.468C84.1266 245.058 84.5466 246.683 84.8442 248.331C85.1476 249.977 85.3256 251.642 85.3769 253.313C85.4503 255.037 85.3048 256.763 84.9437 258.454C84.0079 256.976 83.2629 255.397 82.7251 253.749C82.1852 252.158 81.7666 250.533 81.4724 248.885C81.1731 247.238 80.9966 245.573 80.9443 243.902C80.8722 242.179 81.0163 240.453 81.3734 238.762V238.762Z" fill="#8B9D36"/>
<path d="M76.7528 245.9C77.7035 247.183 78.4883 248.57 79.0901 250.032C79.6799 251.427 80.1709 252.859 80.5596 254.318C80.9447 255.765 81.241 257.233 81.447 258.713C81.5431 259.459 81.6313 260.201 81.6898 260.957C81.72 261.728 81.8063 262.496 81.948 263.255C81.7503 263.154 81.5604 263.04 81.3797 262.914L80.9185 262.474C80.6244 262.173 80.3547 261.852 80.1117 261.512C79.6433 260.859 79.2286 260.171 78.8712 259.456C78.177 258.067 77.6316 256.615 77.2434 255.121C76.8474 253.641 76.591 252.13 76.4771 250.607C76.3389 249.033 76.4317 247.449 76.7528 245.9V245.9Z" fill="#8B9D36"/>
<path d="M102.804 228.28C104.357 226.658 106.104 225.216 108.01 223.981C109.846 222.766 111.769 221.674 113.764 220.714C115.756 219.747 117.818 218.916 119.933 218.226C122.106 217.493 124.363 217.008 126.656 216.781C125.107 218.406 123.36 219.851 121.453 221.085C119.617 222.3 117.693 223.391 115.696 224.348C113.701 225.31 111.639 226.14 109.524 226.83C107.351 227.562 105.096 228.049 102.804 228.28V228.28Z" fill="#8B9D36"/>
<path d="M97.6904 237.376C99.6763 235.83 101.829 234.488 104.111 233.373C106.328 232.266 108.615 231.29 110.959 230.453C113.301 229.609 115.696 228.907 118.13 228.351C120.619 227.757 123.168 227.418 125.732 227.342C123.749 228.892 121.597 230.236 119.314 231.35C117.097 232.458 114.809 233.432 112.464 234.266C110.12 235.105 107.725 235.805 105.291 236.362C102.802 236.955 100.254 237.295 97.6904 237.376V237.376Z" fill="#8B9D36"/>
<path d="M91.6709 247.487C93.439 245.993 95.381 244.696 97.4589 243.622C99.467 242.56 101.548 241.629 103.689 240.834C105.826 240.034 108.019 239.375 110.252 238.862C112.545 238.31 114.897 238.013 117.261 237.976C115.496 239.475 113.554 240.773 111.475 241.846C109.467 242.909 107.385 243.839 105.243 244.629C103.104 245.425 100.91 246.082 98.6777 246.596C96.3854 247.147 94.0345 247.446 91.6709 247.487Z" fill="#8B9D36"/>
<path d="M86.9136 255.269C88.4538 253.999 90.163 252.926 91.9971 252.081C93.7518 251.249 95.5729 250.552 97.4434 249.995C99.312 249.432 101.225 249.014 103.165 248.745C105.178 248.442 107.225 248.396 109.252 248.608C107.714 249.883 106.005 250.957 104.17 251.802C102.415 252.634 100.593 253.33 98.7215 253.882C96.8516 254.441 94.9381 254.857 92.9991 255.127C90.9859 255.429 88.9398 255.476 86.9136 255.269Z" fill="#8B9D36"/>
<path d="M83.1582 262.252C84.8515 260.704 86.7265 259.347 88.7461 258.209C90.6958 257.084 92.7239 256.088 94.8161 255.226C96.9056 254.359 99.0559 253.631 101.251 253.047C103.506 252.422 105.829 252.05 108.173 251.938C106.483 253.49 104.609 254.849 102.588 255.987C100.639 257.112 98.6095 258.107 96.5154 258.964C94.4241 259.828 92.2733 260.554 90.0781 261.139C87.8241 261.762 85.5021 262.135 83.1582 262.252Z" fill="#8B9D36"/>
<path d="M104.465 224.408C104.153 222.235 104.209 220.029 104.632 217.873C105.004 215.84 105.59 213.849 106.381 211.927C107.164 210.004 108.151 208.161 109.327 206.429C110.554 204.571 112.088 202.915 113.872 201.526C114.191 203.699 114.138 205.907 113.713 208.064C113.342 210.097 112.753 212.088 111.957 214.007C111.168 215.928 110.178 217.769 109.002 219.502C107.776 221.359 106.244 223.015 104.465 224.408V224.408Z" fill="#8B9D36"/>
<path d="M78.5981 265.711L77.7422 265.698C77.7805 263.471 78.7955 210.973 89.8226 194.346L90.5458 194.782C79.6464 211.216 78.6075 265.168 78.5981 265.711Z" fill="#50661A"/>
<path d="M86.6411 201.845C86.9802 199.409 87.0662 196.948 86.8976 194.496C86.7554 192.107 86.477 189.728 86.0637 187.367C85.6642 185.017 85.1207 182.689 84.4814 180.381C83.843 178.058 83.0366 175.822 82.1751 173.441C81.9317 174.033 81.7469 174.644 81.6231 175.268C81.4852 175.881 81.3844 176.501 81.3215 177.125C81.1879 178.349 81.1299 179.58 81.1477 180.81C81.1854 183.231 81.4183 185.646 81.8442 188.033C82.2587 190.413 82.8451 192.763 83.599 195.066C84.3445 197.427 85.3649 199.7 86.6411 201.845V201.845Z" fill="#50661A"/>
<path d="M100.196 168.601C98.3002 170.341 96.6749 172.33 95.3685 174.507C94.0961 176.572 93.0137 178.738 92.1334 180.981C91.2451 183.221 90.5656 185.531 90.1028 187.884C89.5853 190.344 89.4426 192.862 89.6791 195.36C91.58 193.624 93.2082 191.635 94.5137 189.457C95.7872 187.392 96.8673 185.225 97.7413 182.98C98.6235 180.738 99.3004 178.427 99.7644 176.074C100.28 173.615 100.425 171.099 100.196 168.601Z" fill="#50661A"/>
<path d="M109.283 181.98C107.034 183.701 104.91 185.565 102.926 187.558C100.962 189.498 99.0868 191.481 97.2525 193.474L91.803 199.43C90.8888 200.406 89.965 201.367 88.989 202.277C88.0246 203.241 86.9014 204.049 85.6636 204.669C86.4185 204.795 87.1922 204.776 87.9394 204.614C88.6931 204.471 89.4282 204.251 90.1321 203.957C91.5098 203.381 92.8189 202.666 94.0374 201.825C96.4023 200.176 98.5608 198.274 100.471 196.157C102.37 194.083 104.08 191.858 105.583 189.506C107.129 187.148 108.371 184.622 109.283 181.98V181.98Z" fill="#50661A"/>
<path d="M109.283 195.36C106.511 196.678 103.867 198.227 101.381 199.989C98.9212 201.702 96.5548 203.533 94.2911 205.476C92.0225 207.414 89.8612 209.463 87.8158 211.614C85.7154 213.784 83.8228 216.129 82.1606 218.619C84.9355 217.305 87.5815 215.758 90.067 213.995C92.5274 212.283 94.8926 210.449 97.1531 208.503C99.4186 206.562 101.578 204.512 103.624 202.361C105.723 200.191 107.617 197.848 109.283 195.36V195.36Z" fill="#50661A"/>
<path d="M108.359 205.858C105.566 207.096 102.895 208.567 100.375 210.255C97.8834 211.895 95.4817 213.656 93.1796 215.531C90.8729 217.4 88.6704 219.384 86.581 221.472C84.4361 223.578 82.4942 225.863 80.7788 228.3C83.5742 227.067 86.2476 225.597 88.7666 223.908C91.2588 222.268 93.6592 220.506 95.9581 218.628C98.2618 216.755 100.463 214.77 102.553 212.682C104.697 210.576 106.64 208.292 108.359 205.858V205.858Z" fill="#50661A"/>
<path d="M107.743 217.079C104.964 218.074 102.287 219.311 99.7457 220.774C97.2374 222.19 94.8104 223.732 92.4748 225.394C90.135 227.051 87.8914 228.828 85.7538 230.716C83.5581 232.621 81.5536 234.715 79.7661 236.974C82.5474 235.983 85.2257 234.747 87.7665 233.284C90.2751 231.868 92.7012 230.324 95.0339 228.658C97.3709 226.998 99.6132 225.22 101.751 223.332C103.946 221.427 105.951 219.334 107.743 217.079Z" fill="#50661A"/>
<path d="M108.359 225.22C105.451 226.334 102.651 227.688 99.9914 229.266C97.361 230.798 94.8133 232.456 92.3583 234.233C89.8988 236.004 87.5364 237.894 85.2805 239.896C82.9686 241.912 80.8482 244.118 78.9443 246.489C81.8541 245.38 84.6552 244.027 87.3149 242.448C89.9458 240.916 92.4924 239.257 94.9446 237.477C97.4013 235.702 99.7623 233.81 102.019 231.809C104.329 229.793 106.451 227.588 108.359 225.22V225.22Z" fill="#50661A"/>
<path d="M110.515 232.848C107.488 234.188 104.565 235.733 101.769 237.47C98.9921 239.163 96.3056 240.953 93.6863 242.821C91.0595 244.678 88.5054 246.614 85.9964 248.614C83.4615 250.597 81.067 252.663 78.4443 254.709C80.1284 254.445 81.7728 253.988 83.3416 253.348C84.8948 252.729 86.4128 252.033 87.8891 251.263C90.7929 249.716 93.5849 247.985 96.2462 246.084C98.8981 244.19 101.433 242.153 103.838 239.982C106.289 237.804 108.524 235.416 110.515 232.848Z" fill="#50661A"/>
<path d="M113.134 240.768C109.862 241.979 106.688 243.416 103.636 245.067C100.603 246.676 97.6599 248.403 94.7841 250.222C91.9078 252.04 89.1009 253.952 86.3634 255.957C84.9951 256.963 83.6398 257.986 82.2976 259.028C80.9993 260.124 79.62 261.13 78.1704 262.037C79.0794 262.038 79.9818 261.89 80.8386 261.601C81.6984 261.358 82.5332 261.063 83.3589 260.757C85.0055 260.134 86.5965 259.422 88.1571 258.667C91.2548 257.148 94.2584 255.461 97.1531 253.613C100.047 251.78 102.842 249.807 105.527 247.704C108.259 245.596 110.804 243.276 113.134 240.768V240.768Z" fill="#50661A"/>
<path d="M83.9865 211.164C83.8475 208.517 83.4363 205.89 82.7589 203.32C82.1194 200.796 81.329 198.31 80.3916 195.873C79.4609 193.433 78.3822 191.047 77.161 188.726C75.9383 186.345 74.4707 184.086 72.7798 181.98C72.9138 184.628 73.323 187.256 74.0015 189.826C74.6406 192.35 75.433 194.836 76.3747 197.272C77.3097 199.71 78.3902 202.095 79.6107 204.416C80.8342 206.796 82.2998 209.056 83.9865 211.164V211.164Z" fill="#50661A"/>
<path d="M82.1602 220.323C81.6355 217.69 80.8438 215.112 79.7962 212.626C78.7927 210.18 77.6449 207.79 76.3584 205.467C75.0783 203.141 73.659 200.887 72.1076 198.716C70.5466 196.486 68.7596 194.408 66.7725 192.51C67.2924 195.144 68.0824 197.723 69.131 200.21C70.1342 202.656 71.2838 205.045 72.5742 207.366C73.8585 209.69 75.2794 211.942 76.8301 214.114C78.392 216.343 80.1771 218.422 82.1602 220.323V220.323Z" fill="#50661A"/>
<path d="M80.779 229.18C79.8789 226.508 78.7205 223.921 77.3186 221.453C75.9642 219.018 74.4734 216.655 72.8526 214.372C71.2375 212.086 69.4923 209.886 67.6249 207.782C65.7434 205.621 63.6533 203.634 61.3818 201.845C62.2773 204.519 63.4343 207.107 64.8376 209.576C66.1912 212.011 67.6837 214.373 69.3087 216.653C70.9274 218.937 72.6741 221.136 74.541 223.24C76.423 225.4 78.5112 227.388 80.779 229.18V229.18Z" fill="#50661A"/>
<path d="M79.7664 238.953C78.3549 236.064 76.698 233.29 74.8123 230.659C72.971 228.042 71.0063 225.521 68.9182 223.097C66.837 220.667 64.6353 218.331 62.3129 216.088C59.9813 213.803 57.4546 211.706 54.7588 209.818C56.1648 212.71 57.8203 215.485 59.7082 218.116C61.5495 220.733 63.5156 223.252 65.6066 225.675C67.6927 228.101 69.896 230.436 72.2164 232.679C74.5493 234.963 77.0744 237.061 79.7664 238.953V238.953Z" fill="#50661A"/>
<path d="M78.9444 249.086C77.2139 246.34 75.252 243.733 73.0779 241.29C70.9495 238.856 68.7087 236.531 66.3556 234.314C64.0091 232.091 61.5528 229.972 58.9866 227.959C56.4067 225.905 53.6531 224.056 50.7539 222.433C52.4793 225.182 54.4401 227.791 56.6163 230.233C58.7446 232.666 60.9867 234.99 63.3423 237.205C65.6933 239.424 68.1511 241.541 70.7155 243.555C73.2965 245.608 76.0486 247.458 78.9444 249.086V249.086Z" fill="#50661A"/>
<path d="M78.4445 255.583C76.525 253.214 74.3924 251.009 72.0708 248.993C69.8035 246.991 67.4319 245.099 64.9649 243.324C62.5025 241.544 59.9459 239.885 57.3051 238.354C54.6355 236.775 51.8248 235.423 48.9058 234.314C50.8216 236.687 52.9533 238.894 55.2762 240.909C57.5429 242.912 59.9157 244.802 62.3854 246.573C64.8508 248.35 67.4086 250.007 70.0489 251.539C72.7188 253.117 75.528 254.47 78.4445 255.583V255.583Z" fill="#50661A"/>
<path d="M78.1705 261.01C75.8677 258.848 73.3767 256.876 70.7241 255.114C68.1203 253.351 65.4372 251.721 62.6749 250.222C59.9169 248.715 57.0817 247.338 54.1694 246.089C51.2306 244.802 48.1813 243.758 45.0552 242.969C47.3548 245.134 49.8452 247.109 52.499 248.869C55.1028 250.632 57.7867 252.261 60.5507 253.757C63.3117 255.259 66.1478 256.635 69.0591 257.886C71.9981 259.17 75.0461 260.216 78.1705 261.01V261.01Z" fill="#50661A"/>
<path d="M78.3831 264.531C75.6202 262.715 72.7066 261.117 69.6713 259.752C66.6822 258.378 63.6346 257.153 60.5374 256.057C57.4405 254.96 54.2895 254.002 51.0843 253.183C47.8482 252.331 44.5437 251.736 41.2046 251.403C43.9645 253.223 46.8777 254.823 49.9144 256.187C52.9039 257.561 55.9492 258.791 59.0504 259.876C62.1493 260.968 65.2984 261.932 68.5055 262.746C71.7417 263.595 75.0452 264.192 78.3831 264.531V264.531Z" fill="#50661A"/>
<path d="M76.8858 264.25C76.0426 262.913 56.1896 231.405 52.9785 223.25L53.78 222.963C56.9631 231.049 77.4133 263.504 77.6192 263.83L76.8858 264.25Z" fill="#5E7C24"/>
<path d="M60.2667 206.073C59.4011 208.112 58.7393 210.225 58.29 212.383C57.8306 214.496 57.4933 216.631 57.2797 218.78C57.0604 220.928 56.9675 223.085 57.0015 225.243C57.0144 227.443 57.248 229.637 57.6992 231.795C58.569 229.757 59.2324 227.644 59.6805 225.486C60.1406 223.373 60.4764 221.237 60.6862 219.088C60.9015 216.94 60.9928 214.782 60.9598 212.624C60.9456 210.425 60.7135 208.231 60.2667 206.073V206.073Z" fill="#5E7C24"/>
<path d="M67.8143 215.901C66.7603 217.8 65.9013 219.793 65.2493 221.85C64.5918 223.86 64.0538 225.905 63.6378 227.973C63.2163 230.04 62.9193 232.129 62.7482 234.228C62.553 236.369 62.5776 238.523 62.8218 240.66C63.8797 238.762 64.7403 236.769 65.3914 234.712C66.0492 232.701 66.5857 230.656 66.9983 228.587C67.4162 226.519 67.7116 224.431 67.8832 222.331C68.0773 220.19 68.0542 218.037 67.8143 215.901V215.901Z" fill="#5E7C24"/>
<path d="M71.9728 227.342C71.0447 229.107 70.3128 230.961 69.7893 232.871C69.2607 234.732 68.8527 236.623 68.5676 238.532C68.2771 240.44 68.112 242.363 68.0733 244.291C68.0133 246.265 68.173 248.24 68.5497 250.182C69.4819 248.418 70.2154 246.564 70.7378 244.653C71.2671 242.792 71.6736 240.901 71.9549 238.992C72.2418 237.083 72.4053 235.16 72.4445 233.232C72.5035 231.258 72.3454 229.284 71.9728 227.342V227.342Z" fill="#5E7C24"/>
<path d="M77.2095 238.762C76.2776 240.241 75.5344 241.821 74.9955 243.468C74.4563 245.058 74.0363 246.683 73.7387 248.331C73.4353 249.977 73.2573 251.642 73.2059 253.313C73.1326 255.037 73.2781 256.763 73.6392 258.454C74.575 256.976 75.32 255.397 75.8578 253.749C76.3977 252.158 76.8163 250.533 77.1104 248.885C77.4098 247.238 77.5863 245.573 77.6386 243.902C77.7107 242.179 77.5666 240.453 77.2095 238.762V238.762Z" fill="#5E7C24"/>
<path d="M81.8304 245.9C80.8797 247.183 80.095 248.57 79.4931 250.032C78.9033 251.427 78.4124 252.859 78.0237 254.318C77.6385 255.765 77.3422 257.233 77.1362 258.713C77.0401 259.459 76.952 260.201 76.8935 260.957C76.8632 261.728 76.7769 262.496 76.6353 263.255C76.8329 263.154 77.0228 263.04 77.2035 262.914L77.6648 262.474C77.9588 262.173 78.2285 261.852 78.4716 261.512C78.94 260.859 79.3547 260.171 79.7121 259.456C80.4063 258.067 80.9516 256.615 81.3399 255.121C81.7358 253.641 81.9923 252.13 82.1061 250.607C82.2443 249.033 82.1515 247.449 81.8304 245.9V245.9Z" fill="#5E7C24"/>
<path d="M55.7786 228.28C54.2257 226.658 52.4784 225.216 50.5726 223.981C48.7364 222.766 46.8137 221.674 44.8184 220.714C42.8261 219.747 40.7645 218.916 38.6489 218.226C36.476 217.493 34.2193 217.008 31.9263 216.781C33.4757 218.406 35.2223 219.851 37.1293 221.085C38.9652 222.3 40.889 223.391 42.8864 224.348C44.8808 225.31 46.9431 226.14 49.0584 226.83C51.2312 227.562 53.4867 228.049 55.7786 228.28V228.28Z" fill="#5E7C24"/>
<path d="M60.8928 237.376C58.907 235.83 56.7546 234.488 54.4718 233.373C52.2548 232.266 49.9678 231.29 47.6238 230.453C45.2824 229.609 42.8873 228.907 40.4528 228.351C37.9641 227.757 35.4156 227.418 32.8511 227.342C34.8341 228.892 36.9858 230.236 39.2696 231.35C41.4861 232.458 43.7741 233.432 46.1197 234.266C48.4628 235.105 50.8584 235.805 53.2927 236.362C55.7814 236.955 58.3289 237.295 60.8928 237.376V237.376Z" fill="#5E7C24"/>
<path d="M66.9122 247.487C65.1441 245.993 63.2021 244.696 61.1242 243.622C59.1161 242.56 57.0348 241.629 54.8946 240.834C52.757 240.034 50.564 239.375 48.3311 238.862C46.0386 238.31 43.6866 238.013 41.3223 237.976C43.0875 239.475 45.0291 240.773 47.1082 241.846C49.1158 242.909 51.198 243.839 53.3399 244.629C55.4793 245.425 57.6728 246.082 59.9055 246.596C62.1977 247.147 64.5486 247.446 66.9122 247.487V247.487Z" fill="#5E7C24"/>
<path d="M71.6692 255.269C70.129 253.999 68.4198 252.926 66.5856 252.081C64.8309 251.249 63.0098 250.552 61.1394 249.995C59.2708 249.432 57.3575 249.014 55.4182 248.745C53.4045 248.442 51.3575 248.396 49.3311 248.608C50.8687 249.883 52.5777 250.957 54.413 251.802C56.1673 252.634 57.9893 253.33 59.8613 253.882C61.7312 254.441 63.6447 254.857 65.5837 255.127C67.5969 255.429 69.6429 255.476 71.6692 255.269V255.269Z" fill="#5E7C24"/>
<path d="M75.4248 262.252C73.7315 260.704 71.8565 259.347 69.8369 258.209C67.8871 257.084 65.8591 256.088 63.7669 255.226C61.6774 254.359 59.5271 253.631 57.3316 253.047C55.0774 252.422 52.7544 252.05 50.4097 251.938C52.0998 253.49 53.9742 254.849 55.995 255.987C57.9444 257.112 59.9735 258.107 62.0676 258.964C64.1589 259.828 66.3097 260.554 68.5049 261.139C70.7589 261.762 73.0809 262.135 75.4248 262.252V262.252Z" fill="#5E7C24"/>
<path d="M54.1173 224.408C54.4298 222.235 54.3735 220.029 53.9506 217.873C53.5784 215.84 52.9926 213.849 52.2021 211.927C51.419 210.004 50.4316 208.161 49.2552 206.429C48.0291 204.571 46.4943 202.915 44.7107 201.526C44.3913 203.699 44.4449 205.907 44.8694 208.064C45.2409 210.097 45.8293 212.088 46.6255 214.007C47.4146 215.928 48.4045 217.769 49.5803 219.502C50.8069 221.359 52.3388 223.015 54.1173 224.408Z" fill="#5E7C24"/>
<path d="M464.732 266.534H34.4601C34.2291 266.534 34.0075 266.447 33.8441 266.291C33.6807 266.136 33.5889 265.925 33.5889 265.704C33.5889 265.484 33.6807 265.273 33.8441 265.118C34.0075 264.962 34.2291 264.875 34.4601 264.875H464.732C464.963 264.875 465.184 264.962 465.348 265.118C465.511 265.273 465.603 265.484 465.603 265.704C465.603 265.925 465.511 266.136 465.348 266.291C465.184 266.447 464.963 266.534 464.732 266.534Z" fill="#8C8686"/>
</svg>
